<?xml version="1.0" encoding="UTF-8"?>
<svg version="1.1" xmlns="http://www.w3.org/2000/svg" width="1080" height="751">
<path d="M0 0 C0.33131171 9.11805382 -0.5453429 18.05314913 -1.54418945 27.10083008 C-1.81521605 29.58741892 -2.06500876 32.07561768 -2.31445312 34.56445312 C-2.48569115 36.14857726 -2.65817095 37.73256777 -2.83203125 39.31640625 C-2.94004814 40.43034508 -2.94004814 40.43034508 -3.05024719 41.56678772 C-3.29223633 43.64282227 -3.29223633 43.64282227 -4 47 C-7.49265687 49.32843791 -10.73345619 49.94105828 -14.7734375 50.7265625 C-15.53419586 50.87910492 -16.29495422 51.03164734 -17.07876587 51.18881226 C-18.6869582 51.50965135 -20.29581623 51.82716905 -21.90527344 52.14160156 C-24.36053854 52.62216947 -26.81312039 53.11493431 -29.265625 53.609375 C-30.830584 53.92000309 -32.39568391 54.22992228 -33.9609375 54.5390625 C-34.69130219 54.68590485 -35.42166687 54.83274719 -36.17416382 54.98403931 C-39.83192522 55.69206022 -43.27206591 56.17040422 -47 56 C-47.07347656 57.89105469 -47.07347656 57.89105469 -47.1484375 59.8203125 C-47.55623709 69.60939071 -48.12228453 79.36591125 -49 89.125 C-49.1244751 90.53676514 -49.1244751 90.53676514 -49.25146484 91.97705078 C-49.33348145 92.85345215 -49.41549805 93.72985352 -49.5 94.6328125 C-49.5721875 95.40512207 -49.644375 96.17743164 -49.71875 96.97314453 C-50 99 -50 99 -51 102 C-50.17798096 101.823479 -49.35596191 101.64695801 -48.5090332 101.46508789 C-45.44333767 100.80693186 -42.37757512 100.14908914 -39.31176758 99.49145508 C-37.98784762 99.20739996 -36.66395401 98.92322196 -35.34008789 98.63891602 C-33.43122268 98.22900175 -31.52225302 97.81957397 -29.61328125 97.41015625 C-28.46641846 97.16402588 -27.31955566 96.91789551 -26.13793945 96.66430664 C-24.58465942 96.33547485 -24.58465942 96.33547485 -23 96 C-22.11723389 95.80720459 -21.23446777 95.61440918 -20.32495117 95.41577148 C-17.2019498 94.85728452 -14.16439628 94.93795301 -11 95 C-10.65700862 104.12484117 -11.57729384 113.05048975 -12.59912109 122.10083008 C-12.87781721 124.58763796 -13.14048526 127.07582222 -13.40234375 129.56445312 C-13.57716655 131.14854357 -13.75291332 132.73253238 -13.9296875 134.31640625 C-14.04544632 135.43034508 -14.04544632 135.43034508 -14.1635437 136.56678772 C-14.77070211 141.77070211 -14.77070211 141.77070211 -17 144 C-19.49063488 144.66260673 -21.93362806 145.22450563 -24.45703125 145.7265625 C-25.56699715 145.95537613 -25.56699715 145.95537613 -26.6993866 146.18881226 C-28.26637637 146.51005934 -29.83413847 146.82755846 -31.40258789 147.14160156 C-33.79451915 147.62139327 -36.18343494 148.11440317 -38.57226562 148.609375 C-40.09619251 148.92006483 -41.62027641 149.22998567 -43.14453125 149.5390625 C-43.85615921 149.68590485 -44.56778717 149.83274719 -45.30097961 149.98403931 C-48.93615396 150.70522321 -52.3025503 151.06214535 -56 151 C-56.05115967 152.13808105 -56.10231934 153.27616211 -56.1550293 154.44873047 C-56.72011551 166.37815106 -57.66588096 178.23879766 -58.8125 190.125 C-58.98828452 191.97393483 -59.16381646 193.82289368 -59.33911133 195.671875 C-59.70299464 199.50057637 -60.06966677 203.3289967 -60.43847656 207.15722656 C-60.91106359 212.06476609 -61.37675229 216.97293248 -61.84046936 221.88131714 C-62.19989393 225.67843403 -62.56271696 229.47522013 -62.92660522 233.27191162 C-63.09985638 235.08354028 -63.2720854 236.89526698 -63.44326782 238.70709229 C-63.68139662 241.22173937 -63.9240569 243.73590817 -64.16796875 246.25 C-64.23760834 246.99482635 -64.30724792 247.73965271 -64.3789978 248.50704956 C-64.6740663 251.50612458 -65.04301086 254.12903258 -66 257 C-65.16597656 257.268125 -64.33195313 257.53625 -63.47265625 257.8125 C-52.41163607 261.66421837 -45.76354588 266.15468407 -40.125 276.5625 C-28.75694094 300.64975298 -34.04591237 330.06493284 -36.375 355.625 C-36.48577881 356.85977081 -36.59655762 358.09454163 -36.71069336 359.36672974 C-37.03248758 362.90455633 -37.36865195 366.44066545 -37.7109375 369.9765625 C-37.85956741 371.59970116 -37.85956741 371.59970116 -38.01119995 373.25563049 C-38.11111237 374.24715622 -38.21102478 375.23868195 -38.31396484 376.26025391 C-38.39834808 377.13066315 -38.48273132 378.00107239 -38.56967163 378.89785767 C-39 381 -39 381 -41 383 C-43.28814697 383.65811157 -43.28814697 383.65811157 -46.18066406 384.23681641 C-47.26228821 384.45689362 -48.34391235 384.67697083 -49.45831299 384.90371704 C-50.63222595 385.13400604 -51.80613892 385.36429504 -53.015625 385.6015625 C-54.21934753 385.8428891 -55.42307007 386.0842157 -56.66326904 386.33285522 C-59.86891458 386.97314884 -63.07590514 387.60611696 -66.2835083 388.23651123 C-69.53062289 388.87799248 -72.77477744 389.53419937 -76.01953125 390.1875 C-78.4972258 390.68054274 -80.97508532 391.17275733 -83.453125 391.6640625 C-85.20184906 392.0155687 -85.20184906 392.0155687 -86.98590088 392.37417603 C-88.08013367 392.58794891 -89.17436646 392.8017218 -90.30175781 393.02197266 C-91.25947083 393.21135406 -92.21718384 393.40073547 -93.20391846 393.59585571 C-96.18556284 394.02682116 -98.99149458 394.13742874 -102 394 C-102.33 393.67 -102.66 393.34 -103 393 C-102.97011507 391.12048512 -102.86500131 389.24211958 -102.73046875 387.3671875 C-102.64716309 386.17883301 -102.56385742 384.99047852 -102.47802734 383.76611328 C-102.33421631 381.84001221 -102.33421631 381.84001221 -102.1875 379.875 C-102.04755615 377.91989502 -102.04755615 377.91989502 -101.90478516 375.92529297 C-101.23924928 366.71632039 -100.479326 357.51581704 -99.61010742 348.32373047 C-98.39995732 339.75457017 -98.39995732 339.75457017 -100.1875 331.625 C-102.5932893 329.46808546 -103.74926791 329.07223849 -107 329 C-111.14336035 329.93266876 -114.21286476 331.25541262 -117.3125 334.1875 C-122.38531331 342.64218884 -122.99486859 351.57315115 -123.95800781 361.17333984 C-124.12675691 362.77908111 -124.29630475 364.38473861 -124.46660233 365.99031639 C-124.9066399 370.17097123 -125.33248034 374.35292689 -125.75250435 378.53563595 C-125.9903621 380.90403345 -126.23033903 383.27220643 -126.47093201 385.64032745 C-127.48833922 395.67747149 -128.46828972 405.71809361 -129.43451214 415.76028109 C-129.67663165 418.27598573 -129.91936001 420.791631 -130.16223907 423.30726242 C-130.92824827 431.24336224 -131.69213299 439.17966206 -132.45278335 447.11627734 C-133.32013523 456.16597252 -134.19496684 465.21490503 -135.07600665 474.26327765 C-135.76581186 481.35239367 -136.44895429 488.44213275 -137.12718701 495.5323652 C-137.52878282 499.72913906 -137.9330062 503.9256152 -138.3443222 508.12144852 C-142.36808855 534.28847852 -142.36808855 534.28847852 -140 560 C-134.20200541 560.41414247 -130.90104301 559.86865215 -125.95703125 556.77734375 C-123.34998888 555.74181195 -121.68422727 556.38069014 -119 557 C-119.59981728 570.03632292 -120.3615984 583.05242027 -121.30224609 596.06860352 C-121.50313846 598.8560471 -121.69898816 601.64381719 -121.89453125 604.43164062 C-122.02313991 606.23179212 -122.15203517 608.03192317 -122.28125 609.83203125 C-122.338573 610.65185989 -122.395896 611.47168854 -122.45495605 612.31636047 C-123.12544488 621.48067928 -123.12544488 621.48067928 -124 626 C-127.49460202 629.0026745 -131.36173957 629.73190364 -135.8125 630.625 C-137.55466797 630.98464844 -137.55466797 630.98464844 -139.33203125 631.3515625 C-154.80369899 634.08670291 -173.96324637 635.87896574 -187.875 627.3125 C-198.60663353 619.27360236 -203.27437044 609.13373136 -205.56476402 596.11346817 C-209.02010466 571.39562852 -204.68568472 544.99927143 -202.26214194 520.36272097 C-201.72907446 514.9137774 -201.21198768 509.46331372 -200.69282532 504.01303101 C-199.82032175 494.87641493 -198.93746749 485.74085071 -198.04711914 476.60595703 C-196.9114945 464.95419548 -195.79214363 453.3009326 -194.67827129 441.64707375 C-193.71061027 431.52315265 -192.73665214 421.39983884 -191.76109719 411.2766757 C-191.55413946 409.1282454 -191.34738335 406.97979567 -191.14083457 404.83132601 C-187.1903027 363.74073493 -187.1903027 363.74073493 -185.36254883 348.84130859 C-185.25534106 347.95630991 -185.1481333 347.07131123 -185.03767681 346.1594944 C-181.69970509 320.26825116 -172.34161722 296.14557186 -152 279 C-141.12775634 270.73169406 -124.00135898 261 -110 261 C-109.91118561 259.7058316 -109.82237122 258.41166321 -109.73086548 257.07827759 C-108.08818549 234.12984625 -105.77665117 211.24129015 -103.55670118 188.34321547 C-102.97165554 182.30301182 -102.38951167 176.26252847 -101.80703735 170.22207642 C-100.70768185 158.82588878 -99.60578173 147.42994874 -98.50292742 136.03409922 C-97.24576001 123.04240129 -95.99149013 110.05042412 -94.73744273 97.05842471 C-92.16147973 70.37197501 -89.58194587 43.68587147 -87 17 C-85.58312008 16.51733236 -84.16531313 16.03738556 -82.74713039 15.55855942 C-81.95769147 15.29099201 -81.16825255 15.0234246 -80.35489124 14.74774909 C-76.95711238 13.66885168 -73.52947002 12.94517134 -70.03344727 12.26660156 C-69.29407425 12.11825363 -68.55470123 11.9699057 -67.79292297 11.81706238 C-65.38521582 11.33567424 -62.97593643 10.86279632 -60.56640625 10.390625 C-58.88005854 10.05653286 -57.19377516 9.7221159 -55.5075531 9.38739014 C-51.99252214 8.69107081 -48.47667806 7.99905729 -44.96020508 7.31005859 C-40.44686857 6.42531736 -35.93589189 5.52912912 -31.42546177 4.62970352 C-27.95296713 3.93865234 -24.47925466 3.25389457 -21.0051403 2.57103729 C-19.34010901 2.2429135 -17.67547947 1.9127443 -16.01126289 1.580513 C-13.69565132 1.11915618 -11.37852909 0.66635383 -9.06079102 0.21582031 C-8.37146484 0.07667709 -7.68213867 -0.06246613 -6.97192383 -0.20582581 C-2.22848955 -1.11424477 -2.22848955 -1.11424477 0 0 Z " fill="#FEFEFE" transform="translate(413,87)"/>
<path d="M0 0 C0.92845931 3.06614395 1.02993901 5.50214538 0.72816944 8.68310738 C0.642059 9.62600439 0.55594856 10.56890141 0.46722871 11.54037106 C0.36587969 12.57321347 0.26453067 13.60605587 0.16011047 14.67019653 C0.0576148 15.77007932 -0.04488087 16.8699621 -0.15048248 18.00317466 C-0.49702846 21.70344704 -0.85339316 25.4027081 -1.2097168 29.10205078 C-1.45980034 31.75002468 -1.70935121 34.39804392 -1.95826721 37.04612732 C-2.56684392 43.50655102 -3.18286409 49.96624435 -3.8015553 56.42570646 C-4.30544149 61.6878455 -4.8067033 66.95022838 -5.30610085 72.21279526 C-5.37724084 72.96242012 -5.44838083 73.71204498 -5.52167657 74.48438575 C-5.66622233 76.00761111 -5.81076292 77.53083697 -5.9552984 79.05406331 C-7.31271458 93.35609373 -8.67864286 107.65730158 -10.04739074 121.95825134 C-11.21675889 134.17822714 -12.37861027 146.39889834 -13.53491211 158.62011719 C-14.8800756 172.83743841 -16.23029331 187.05426578 -17.58811885 201.27038372 C-17.73369329 202.79467442 -17.87926048 204.31896581 -18.02482033 205.8432579 C-18.13221884 206.96790336 -18.13221884 206.96790336 -18.24178701 208.11526892 C-18.74115896 213.34817772 -19.23701614 218.58141239 -19.73142052 223.81479263 C-20.33733047 230.22755832 -20.94879932 236.63976703 -21.56689586 243.05136998 C-21.88099016 246.3109099 -22.19204667 249.57068389 -22.49795914 252.83100319 C-30.12209357 333.98080291 -30.12209357 333.98080291 -59.3671875 359.02734375 C-79.78855919 374.18866516 -106.90269466 380.78383102 -132 382 C-133.51787109 382.07927734 -133.51787109 382.07927734 -135.06640625 382.16015625 C-147.48055801 382.5037489 -159.60354452 380.96944362 -168.89453125 372.21484375 C-179.83736024 360.62696379 -181.2468348 345.35245468 -181.21284485 330.07585144 C-181.21059507 328.93706266 -181.20834529 327.79827387 -181.20602733 326.62497634 C-181.10069138 314.421253 -180.03991989 302.36100682 -178.84448242 290.22387695 C-178.61185272 287.76800769 -178.38030374 285.31203586 -178.1497345 282.85597229 C-177.65605843 277.62286071 -177.15507671 272.39050739 -176.64699364 267.15877724 C-175.90918311 259.56139539 -175.18531368 251.96273185 -174.46445528 244.36372509 C-173.28951426 231.98187349 -172.10372164 219.60108707 -170.91088867 207.22094727 C-169.76150254 195.29148692 -168.61733511 183.36154519 -167.48022461 171.4309082 C-167.41023293 170.69656964 -167.34024124 169.96223107 -167.2681286 169.20563982 C-166.91650541 165.51615467 -166.56498011 161.82666021 -166.21349561 158.13716185 C-164.48058268 139.94814426 -162.74440428 121.75943958 -160.99906921 103.5716095 C-160.87604697 102.28942506 -160.75302472 101.00724062 -160.62627453 99.68620211 C-160.03674096 93.54552737 -159.44564775 87.40500924 -158.85138226 81.26479053 C-157.89558372 71.38198778 -156.94672505 61.49923724 -156.06021118 51.60995483 C-155.86010578 49.41251685 -155.65934935 47.21513958 -155.45829451 45.01778829 C-155.28556928 43.09811553 -155.12248942 41.17758235 -154.95981884 39.25703144 C-154.85978715 38.16534751 -154.75975546 37.07366358 -154.6566925 35.94889832 C-154.57676213 35.02773318 -154.49683176 34.10656805 -154.41447926 33.15748882 C-154 31 -154 31 -152 29 C-149.71858215 28.34188843 -149.71858215 28.34188843 -146.83520508 27.76318359 C-145.2176104 27.43306778 -145.2176104 27.43306778 -143.56733704 27.09628296 C-142.39656113 26.86599396 -141.22578522 26.63570496 -140.01953125 26.3984375 C-138.81818039 26.1571109 -137.61682953 25.9157843 -136.3790741 25.66714478 C-133.8318328 25.15748379 -131.28381664 24.65168281 -128.73510742 24.14941406 C-124.84395556 23.38121006 -120.95609431 22.59779138 -117.06835938 21.8125 C-114.59393327 21.31939198 -112.11932927 20.82717557 -109.64453125 20.3359375 C-108.4838765 20.10160004 -107.32322174 19.86726257 -106.12739563 19.62582397 C-104.48615974 19.30516464 -104.48615974 19.30516464 -102.81176758 18.97802734 C-101.37852898 18.69395523 -101.37852898 18.69395523 -99.91633606 18.40414429 C-96.5839575 17.94234505 -93.36069726 17.97441385 -90 18 C-90.63645646 32.24549355 -91.9127432 46.39540953 -93.31665039 60.58349609 C-93.55359614 63.00683754 -93.79018356 65.43021404 -94.02644348 67.85362244 C-94.53244925 73.0378185 -95.04057254 78.22180234 -95.55043221 83.40562057 C-96.35817675 91.62004302 -97.15842469 99.83518821 -97.95762634 108.05044556 C-98.23241298 110.87408687 -98.50725474 113.69772281 -98.7821188 116.52135658 C-98.85077505 117.22666067 -98.91943131 117.93196475 -98.99016805 118.65864169 C-99.76855285 126.65374359 -100.54863464 134.64867964 -101.3293457 142.64355469 C-101.40055496 143.37279253 -101.47176421 144.10203037 -101.54513132 144.85336633 C-102.69913539 156.66955902 -103.85777719 168.48529386 -105.0174653 180.30092983 C-106.21332041 192.48696693 -107.40168705 204.6737202 -108.58387941 216.8610903 C-109.31043533 224.34833263 -110.04299681 231.83493652 -110.78364407 239.32079829 C-111.3519722 245.07082179 -111.91009636 250.82180201 -112.46465874 256.5731678 C-112.69187301 258.9129966 -112.92232276 261.25251411 -113.15644836 263.59166145 C-116.4238672 285.98213631 -116.4238672 285.98213631 -114 308 C-108.35470311 309.59226323 -104.16073132 308.44204661 -99 306 C-91.58158142 300.51682105 -90.8606393 291.75084771 -89.47255147 283.18963003 C-88.76275104 278.39861591 -88.26949946 273.59936942 -87.81712341 268.77813721 C-87.71403132 267.71588857 -87.61093923 266.65363994 -87.50472313 265.55920196 C-87.1638245 262.03625608 -86.82885548 258.51277298 -86.49389648 254.98925781 C-86.24928387 252.44874135 -86.00429923 249.90826068 -85.75897217 247.36781311 C-85.23326053 241.91544704 -84.71007683 236.46284797 -84.18920708 231.0100174 C-83.4352769 223.11760963 -82.67645956 215.22567753 -81.91644669 207.33385345 C-80.68208695 194.5153537 -79.45128225 181.6965153 -78.22290039 168.87744141 C-77.03221332 156.45185386 -75.84041741 144.02637378 -74.64672852 131.60107422 C-74.57314448 130.83511827 -74.49956044 130.06916232 -74.42374658 129.27999559 C-73.61992919 120.91321754 -72.81575773 112.54647356 -72.01126957 104.17975998 C-71.94052344 103.44398479 -71.86977731 102.7082096 -71.79688736 101.9501382 C-71.22881695 96.04212611 -71.22881695 96.04212611 -70.94830061 93.12513575 C-70.12143334 84.52667885 -69.29564818 75.92811962 -68.47182346 67.32937065 C-67.89420635 61.30060794 -67.3155577 55.27194475 -66.73655701 49.24331474 C-66.49952039 46.7730412 -66.2628828 44.30272934 -66.02667427 41.83237648 C-65.70412472 38.45945925 -65.38017297 35.08667945 -65.05589294 31.71392822 C-64.96289632 30.73766078 -64.86989969 29.76139334 -64.77408499 28.75554204 C-64.52464452 26.16941142 -64.26408318 23.58466991 -64 21 C-63.92673528 20.21656865 -63.85347056 19.43313729 -63.77798569 18.6259656 C-63.21331138 13.21091118 -63.21331138 13.21091118 -61.1340332 11.1550293 C-56.46579599 9.43457824 -51.73209145 8.47005481 -46.85546875 7.51953125 C-45.77171463 7.30181564 -44.68796051 7.08410004 -43.57136536 6.85978699 C-41.28182069 6.40226925 -38.99131843 5.9495212 -36.69995117 5.5012207 C-33.20805138 4.81652971 -29.72020313 4.113539 -26.23242188 3.40820312 C-24.00282293 2.96504376 -21.7730116 2.52295137 -19.54296875 2.08203125 C-18.50625534 1.87270462 -17.46954193 1.66337799 -16.40141296 1.44770813 C-10.82239558 0.36780901 -5.68234455 -0.22553352 0 0 Z " fill="#FEFEFE" transform="translate(695,277)"/>
<path d="M0 0 C0.88084668 -0.01071879 1.76169336 -0.02143759 2.66923237 -0.03248119 C12.5982084 0.09052035 21.72252034 2.80618578 29.25317383 9.42700195 C43.58745054 25.31935222 42.20348452 47.41765268 41.25317383 67.42700195 C40.83755599 73.88086959 40.19236352 80.30994366 39.50317383 86.73950195 C39.42467194 87.49925323 39.34617004 88.25900452 39.26528931 89.04177856 C36.81530131 112.30391239 31.73448427 136.02529504 15.10864258 153.4309082 C13.20257171 155.2937039 13.20257171 155.2937039 12.25317383 157.42700195 C11.59317383 157.42700195 10.93317383 157.42700195 10.25317383 157.42700195 C10.25317383 158.08700195 10.25317383 158.74700195 10.25317383 159.42700195 C8.72192383 160.71606445 8.72192383 160.71606445 6.75317383 162.05200195 C6.10348633 162.49801758 5.45379883 162.9440332 4.78442383 163.40356445 C4.02645508 163.91016602 4.02645508 163.91016602 3.25317383 164.42700195 C4.03821289 164.69512695 4.82325195 164.96325195 5.63208008 165.23950195 C14.78747969 168.65452218 19.83893693 172.79387553 24.56567383 181.30200195 C28.16972721 189.42110361 28.60616023 197.98741033 28.55004883 206.75512695 C28.54361359 208.3683786 28.54361359 208.3683786 28.53704834 210.01422119 C28.38425825 221.91496616 27.22441224 233.69178011 25.90942383 245.51245117 C25.50208662 249.18680902 25.11840215 252.86309552 24.73754883 256.5402832 C20.76764858 293.93532856 20.76764858 293.93532856 14.87817383 308.61450195 C14.42764648 309.78215088 14.42764648 309.78215088 13.96801758 310.97338867 C11.63540507 316.85044033 8.93178598 322.26553839 5.25317383 327.42700195 C4.74399414 328.17852539 4.23481445 328.93004883 3.71020508 329.7043457 C-16.40018351 357.64870989 -54.39883629 361.07326118 -85.56390381 367.19769287 C-89.2399979 367.92317001 -92.913741 368.66017516 -96.58751011 369.39732075 C-100.15990609 370.1130332 -103.73344928 370.82287095 -107.3073864 371.53084373 C-108.99836176 371.86625399 -110.68905082 372.20311145 -112.37942696 372.5415287 C-121.16119141 374.29517618 -129.79203993 375.86011512 -138.74682617 376.42700195 C-138.9889204 365.16601552 -138.2283207 354.10824749 -137.29394531 342.89648438 C-137.13745325 340.96819898 -136.98145639 339.03987334 -136.82591248 337.11151123 C-136.40534194 331.91519482 -135.97781285 326.71947266 -135.54889226 321.52383971 C-135.09967218 316.06848418 -134.65671435 310.61261996 -134.21299744 305.15681458 C-133.46768248 296.00348522 -132.71821213 286.85050416 -131.96582031 277.69775391 C-131.00133849 265.96479003 -130.0432677 254.23131223 -129.08738041 242.49764538 C-128.26336666 232.38275755 -127.43694642 222.26806659 -126.609864 212.15342927 C-126.43286236 209.98847124 -126.25593629 207.82350703 -126.07908559 205.65853667 C-125.57508025 199.48887745 -125.06978409 193.3193269 -124.56235695 187.14994812 C-124.40913592 185.28479946 -124.25634946 183.41961504 -124.10403824 181.55439186 C-123.89542341 179.00081395 -123.68517106 176.44737587 -123.47450256 173.89396667 C-123.41516023 173.16321511 -123.3558179 172.43246354 -123.29467732 171.67956799 C-122.87171356 166.58341317 -122.3283726 161.50755275 -121.74682617 156.42700195 C-114.25591435 153.64144202 -106.65607561 152.08799731 -98.82973671 150.60876465 C-96.50319897 150.16860019 -94.17836729 149.72025195 -91.85380554 149.26977539 C-85.25121529 147.99185723 -78.64570347 146.72932685 -72.03955078 145.4699707 C-67.98177089 144.69584134 -63.92572358 143.91310707 -59.87056541 143.12536621 C-58.33271566 142.82853912 -56.79420519 142.53511321 -55.25502968 142.24523926 C-53.10263887 141.83987062 -50.95259997 141.42365156 -48.80273438 141.00512695 C-46.97147758 140.65562988 -46.97147758 140.65562988 -45.10322571 140.29907227 C-41.6718657 139.40752549 -38.87879372 138.06225798 -35.74682617 136.42700195 C-35.08682617 136.42700195 -34.42682617 136.42700195 -33.74682617 136.42700195 C-30.4239144 128.50313542 -28.28585355 120.88341487 -27.18432617 112.36450195 C-25.91515531 102.84209429 -25.91515531 102.84209429 -24.58276367 98.35668945 C-23.40679543 93.89853283 -24.04005257 90.07799089 -24.93432617 85.61450195 C-25.06129883 84.86491211 -25.18827148 84.11532227 -25.3190918 83.34301758 C-25.83276986 80.59275084 -26.35895975 78.07550245 -27.8059082 75.65625 C-30.98829819 73.64073634 -34.25851537 74.52713021 -37.82104492 75.02856445 C-38.62023849 75.12996735 -39.41943207 75.23137024 -40.24284363 75.33584595 C-47.98428847 76.36318041 -55.64332338 77.78826501 -63.29412842 79.3420105 C-65.62351146 79.81503599 -67.9546359 80.27849331 -70.28637695 80.73974609 C-74.09218368 81.49361408 -77.89662629 82.25408495 -81.70062256 83.01702881 C-86.50510058 83.97964414 -91.31222387 84.92786968 -96.12182617 85.86450195 C-96.93369385 86.02805176 -97.74556152 86.19160156 -98.58203125 86.36010742 C-102.68864159 87.15924604 -106.5607525 87.69268155 -110.74682617 87.42700195 C-111.24182617 86.93200195 -111.24182617 86.93200195 -111.74682617 86.42700195 C-111.74023438 84.65332031 -111.74023438 84.65332031 -111.54760742 82.2668457 C-111.47485596 81.34661621 -111.40210449 80.42638672 -111.32714844 79.47827148 C-111.23876709 78.45072754 -111.15038574 77.42318359 -111.05932617 76.36450195 C-110.96901123 75.29570801 -110.87869629 74.22691406 -110.78564453 73.12573242 C-110.51296341 69.97032863 -110.23211645 66.81576373 -109.94726562 63.66143799 C-109.72926252 61.23120788 -109.51627719 58.80056316 -109.3034668 56.36987305 C-108.9046322 51.8378638 -108.48873679 47.30764906 -108.06283569 42.77810669 C-107.89385971 40.96103007 -107.72932672 39.1435348 -107.56924438 37.32565308 C-107.34059719 34.74605497 -107.09465868 32.16865195 -106.84448242 29.59106445 C-106.77880066 28.8108342 -106.7131189 28.03060394 -106.64544678 27.22673035 C-106.09984173 21.87349509 -106.09984173 21.87349509 -104.43378925 19.76627636 C-101.54434139 17.47235327 -97.94566553 17.12706778 -94.40185547 16.43408203 C-93.54918091 16.25807968 -92.69650635 16.08207733 -91.81799316 15.90074158 C-88.98801402 15.32040963 -86.15490092 14.75760649 -83.32104492 14.1965332 C-81.33771315 13.79765821 -79.35446344 13.39837496 -77.37129211 12.998703 C-73.19897759 12.16106275 -69.02491786 11.33283387 -64.84960938 10.51025391 C-59.5594033 9.46663449 -54.27565215 8.39370037 -48.99306011 7.31229115 C-44.88690607 6.47648786 -40.77699348 5.66044583 -36.66587257 4.84946251 C-34.72055832 4.46271598 -32.77653329 4.06941352 -30.83402061 3.66883278 C-20.53851777 1.55470792 -10.52980697 0.08058363 0 0 Z M-53.12182617 210.80200195 C-54.36899414 211.03016602 -54.36899414 211.03016602 -55.64135742 211.26293945 C-57.6790011 211.63767852 -59.71329974 212.03052825 -61.74682617 212.42700195 C-62.66461707 221.78909098 -63.57769921 231.15162413 -64.48488617 240.51474667 C-64.90634078 244.8630852 -65.32937413 249.21125772 -65.75610352 253.55908203 C-66.1683836 257.76029878 -66.57640154 261.9619102 -66.98155212 266.16382027 C-67.13633136 267.76140469 -67.29260785 269.35884483 -67.45045471 270.95612907 C-68.22389678 278.79213651 -68.96576782 286.54119308 -68.74682617 294.42700195 C-55.13850976 292.72946003 -55.13850976 292.72946003 -44.74682617 284.42700195 C-35.33852366 265.98133359 -32.98736359 234.73138759 -36.38745117 214.6418457 C-37.41208629 211.2618361 -37.41208629 211.2618361 -40.24584961 210.14013672 C-44.85327264 209.20162328 -48.55644879 209.8991203 -53.12182617 210.80200195 Z " fill="#FEFEFE" transform="translate(825.746826171875,251.572998046875)"/>
<path d="M0 0 C-1.26428457 15.5530375 -2.63414105 31.09218906 -4.12304688 46.62524414 C-4.32709652 48.76517241 -4.53103697 50.9051111 -4.73487854 53.0450592 C-5.39401468 59.9586316 -6.0562561 66.87190494 -6.71875 73.78515625 C-6.94841416 76.18349002 -7.17806391 78.58182517 -7.40769958 80.98016167 C-8.3621721 90.94671941 -9.31739471 100.91320469 -10.27481842 110.87947941 C-11.64058492 125.09640605 -13.00178476 139.31375294 -14.35665655 153.53172213 C-15.3143243 163.57768648 -16.277011 173.62316213 -17.24347162 183.66828436 C-17.8190636 189.65213508 -18.39248167 195.63617522 -18.96055603 201.62074471 C-19.49327951 207.23164976 -20.03221465 212.84192352 -20.57594109 218.45177269 C-20.77413857 220.50786765 -20.97009075 222.56418048 -21.1636219 224.62071991 C-21.42823903 227.42896989 -21.70096335 230.23631975 -21.97570801 233.04359436 C-22.050228 233.85506033 -22.12474799 234.66652629 -22.20152617 235.50258213 C-22.67319891 240.21630643 -23.56217177 244.4833115 -25 249 C-29.87317087 250.00439982 -34.74783848 251.00105908 -39.62402344 251.99072266 C-41.28102799 252.3281408 -42.93761159 252.66763329 -44.59375 253.00927734 C-46.9806808 253.50129493 -49.36904909 253.98571866 -51.7578125 254.46875 C-52.49242706 254.62186646 -53.22704163 254.77498291 -53.98391724 254.93273926 C-58.05233463 255.74694932 -61.8522351 256.15974885 -66 256 C-66.20082005 247.76356495 -65.41809293 239.66096673 -64.62304688 231.47436523 C-64.4749014 229.91644185 -64.3271302 228.35848283 -64.17970276 226.80049133 C-63.7806133 222.59417848 -63.37632298 218.38838023 -62.97106361 214.18265796 C-62.54760888 209.77872427 -62.12898539 205.37433139 -61.70983887 200.96998596 C-60.91637887 192.64012288 -60.11860448 184.31067895 -59.31926107 175.98137861 C-58.40902822 166.49436697 -57.50363364 157.00689553 -56.59863567 147.51938331 C-54.73778891 128.01240754 -52.87089785 108.50601418 -51 89 C-51.1257009 89.60457944 -51.25140181 90.20915888 -51.38091183 90.83205891 C-54.48815761 105.77677548 -57.5957277 120.72142458 -60.70362759 135.66600513 C-62.20678381 142.89408619 -63.70983832 150.12218837 -65.21264648 157.3503418 C-65.65166127 159.46183912 -66.09067951 161.57333573 -66.52970004 163.68483186 C-66.82098928 165.08582763 -67.11226956 166.48682527 -67.40354085 167.88782477 C-68.98393369 175.4893276 -70.56522097 183.09064228 -72.14901733 190.69143677 C-72.570153 192.71272594 -72.9912743 194.73401811 -73.4123795 196.75531363 C-73.68810704 198.07879708 -73.96385339 199.40227661 -74.23961902 200.72575212 C-75.87694062 208.58496066 -77.50632913 216.44573071 -79.12326336 224.30915928 C-79.96127616 228.38250473 -80.80320289 232.45503532 -81.64576912 236.52744102 C-82.02576212 238.36966614 -82.40377632 240.2123007 -82.77966118 242.05536842 C-83.28571154 244.53626048 -83.7984149 247.0156864 -84.31274414 249.49487305 C-84.45617563 250.20759306 -84.59960712 250.92031307 -84.74738503 251.65463066 C-85.45023267 255.0084787 -86.10697641 258.10861881 -88 261 C-90.34790039 261.95239258 -90.34790039 261.95239258 -93.28515625 262.58203125 C-94.3642627 262.82002441 -95.44336914 263.05801758 -96.55517578 263.30322266 C-97.69196777 263.53315918 -98.82875977 263.7630957 -100 264 C-101.1019873 264.23122559 -102.20397461 264.46245117 -103.33935547 264.70068359 C-106.70065359 265.3902184 -110.06715155 266.04376928 -113.4375 266.6875 C-114.58154297 266.91244141 -115.72558594 267.13738281 -116.90429688 267.36914062 C-118.00708984 267.58119141 -119.10988281 267.79324219 -120.24609375 268.01171875 C-121.23279053 268.20209717 -122.2194873 268.39247559 -123.23608398 268.58862305 C-125.88605422 268.98304049 -128.32632485 269.15082574 -131 269 C-132.67792877 267.32207123 -132.1795909 265.24212799 -132.22741699 262.93630981 C-132.26517494 261.2889106 -132.26517494 261.2889106 -132.30369568 259.60823059 C-132.32658157 258.39189438 -132.34946747 257.17555817 -132.37304688 255.92236328 C-132.40084732 254.64885513 -132.42864777 253.37534698 -132.45729065 252.06324768 C-132.51796879 249.28157765 -132.57553793 246.49986622 -132.63075256 243.71808243 C-132.7186432 239.29142862 -132.81339712 234.86493778 -132.90905762 230.43844604 C-133.06030985 223.40169281 -133.20693656 216.36485183 -133.35162497 209.32796085 C-133.6087753 196.82491459 -133.87223307 184.32200223 -134.13948298 171.81916797 C-134.23268894 167.44948491 -134.32345191 163.07976032 -134.41222811 158.70998514 C-134.77094912 141.13203225 -135.28261129 123.56725761 -136 106 C-136.08153792 106.84760045 -136.16307585 107.6952009 -136.24708462 108.56848621 C-138.22957053 129.1742294 -140.21592592 149.77959635 -142.20661068 170.38454914 C-143.16918911 180.34887532 -144.13044823 190.3133255 -145.08862305 200.27807617 C-145.92358422 208.96140441 -146.76099884 217.6444919 -147.60138422 226.32729691 C-148.04644357 230.92652028 -148.49025734 235.52585631 -148.93113518 240.12548256 C-149.3458838 244.4520981 -149.76390459 248.77838483 -150.18446922 253.10443878 C-150.33847632 254.69465368 -150.49127354 256.28498627 -150.64278793 257.8754406 C-150.8493989 260.04235441 -151.06030873 262.20880761 -151.27232361 264.37519836 C-151.44792517 266.1962004 -151.44792517 266.1962004 -151.62707424 268.05399036 C-152 271 -152 271 -153 274 C-155.47753906 274.85961914 -155.47753906 274.85961914 -158.765625 275.53515625 C-160.56773437 275.91317383 -160.56773437 275.91317383 -162.40625 276.29882812 C-164.30890625 276.6768457 -164.30890625 276.6768457 -166.25 277.0625 C-167.47203125 277.31837891 -168.6940625 277.57425781 -169.953125 277.83789062 C-186.68918125 281.28615645 -186.68918125 281.28615645 -194 282 C-194.33 281.67 -194.66 281.34 -195 281 C-194.78081194 268.03415413 -193.12804815 255.01718768 -191.89868164 242.11791992 C-191.68483733 239.8544649 -191.47119455 237.59099084 -191.25773621 235.32749939 C-190.68182045 229.22901289 -190.10248666 223.13085617 -189.52202916 217.03280044 C-189.15924381 213.22088142 -188.79703808 209.40890775 -188.43499565 205.59691811 C-187.43058742 195.02326896 -186.42523571 184.44971075 -185.41616154 173.87650585 C-185.35191233 173.20327188 -185.28766313 172.53003791 -185.22146698 171.83640291 C-185.15707715 171.16170085 -185.09268731 170.4869988 -185.02634627 169.79185122 C-184.89589881 168.42495504 -184.76545332 167.05805867 -184.63500977 165.69116211 C-184.57030636 165.01315567 -184.50560296 164.33514923 -184.43893885 163.63659713 C-183.38669418 152.608319 -182.34199957 141.57933935 -181.30045111 130.55004641 C-180.22873261 119.20246156 -179.15052577 107.85551136 -178.06623167 96.50911981 C-177.45844727 90.14752963 -176.85345018 83.78570321 -176.25520515 77.42320824 C-175.69380154 71.45440082 -175.12441084 65.48641005 -174.54875374 59.51896095 C-174.33859627 57.32580023 -174.13136178 55.13235723 -173.92721176 52.93862915 C-173.64894131 49.9532046 -173.36032206 46.96896043 -173.06898499 43.98478699 C-172.98989193 43.10952132 -172.91079887 42.23425565 -172.82930905 41.33246678 C-172.44715694 37.52391053 -172.15855165 35.23782747 -170 32 C-167.57345581 31.18367004 -167.57345581 31.18367004 -164.48388672 30.55786133 C-163.32863495 30.3178389 -162.17338318 30.07781647 -160.98312378 29.83052063 C-159.72798981 29.58351913 -158.47285583 29.33651764 -157.1796875 29.08203125 C-155.89192413 28.81992355 -154.60416077 28.55781586 -153.27737427 28.2877655 C-150.5467738 27.73292602 -147.81464056 27.18666293 -145.08105469 26.64672852 C-141.59493001 25.95776267 -138.11268652 25.25115478 -134.63136101 24.53838062 C-131.29495615 23.85713679 -127.9560384 23.18868697 -124.6171875 22.51953125 C-122.75270462 22.13991997 -122.75270462 22.13991997 -120.85055542 21.75263977 C-119.67639069 21.52207382 -118.50222595 21.29150787 -117.29248047 21.05395508 C-116.26814911 20.84982498 -115.24381775 20.64569489 -114.18844604 20.43537903 C-110.40262776 19.91842944 -106.81890768 19.93025247 -103 20 C-102.99576806 20.7325425 -102.99153612 21.46508499 -102.98717594 22.21982574 C-102.88351575 40.10923819 -102.77482798 57.99861378 -102.66066074 75.88796234 C-102.60556768 84.53939048 -102.55212726 93.19082272 -102.50268555 101.84228516 C-102.45954831 109.38981536 -102.41320011 116.93731813 -102.36312145 124.48480558 C-102.33675587 128.47483128 -102.31191299 132.46485237 -102.29092598 136.45491028 C-102.27105023 140.22399541 -102.24682455 143.99302948 -102.21950912 147.76206779 C-102.2059667 149.7771567 -102.1968144 151.79227369 -102.18788147 153.80738831 C-102.11620103 162.90250791 -101.64629022 171.93131336 -101 181 C-100.83784595 180.13601656 -100.67569189 179.27203312 -100.50862408 178.38186836 C-96.56641184 157.38190082 -92.61029516 136.38459493 -88.63859081 115.3901844 C-86.71825968 105.23747684 -84.80268511 95.08391442 -82.89819336 84.92822266 C-81.23867593 76.07892109 -79.57034949 67.23133448 -77.89132005 58.38571346 C-77.00218539 53.69979493 -76.11755471 49.01312448 -75.2434597 44.32437515 C-74.42124497 39.91469031 -73.58730495 35.50738889 -72.74416924 31.10165787 C-72.43621493 29.48110294 -72.13261866 27.85971309 -71.83362961 26.23748016 C-71.42587959 24.02873861 -71.00279197 21.8234907 -70.5756073 19.61843872 C-70.34239367 18.38139254 -70.10918005 17.14434635 -69.86889935 15.86981392 C-69 13 -69 13 -66 11 C-64.06295935 10.48490147 -62.1048191 10.04748427 -60.13916016 9.65551758 C-58.93425934 9.41219193 -57.72935852 9.16886627 -56.48794556 8.91816711 C-55.17173521 8.65986006 -53.85543862 8.40199215 -52.5390625 8.14453125 C-51.18763031 7.87626814 -49.83626195 7.60768334 -48.48495483 7.33879089 C-45.65296322 6.77701145 -42.82000803 6.2204342 -39.98632812 5.66723633 C-36.36040713 4.95875573 -32.73761446 4.23550882 -29.11545753 3.50806141 C-26.3251822 2.94973986 -23.53321032 2.40031445 -20.74067307 1.85342979 C-19.40448916 1.59045448 -18.06888735 1.32450296 -16.73390579 1.05549049 C-14.8642978 0.67992858 -12.99200042 0.31783129 -11.11962891 -0.04370117 C-9.52436874 -0.35775154 -9.52436874 -0.35775154 -7.8968811 -0.67814636 C-4.9541025 -1.00509937 -2.86290461 -0.6421205 0 0 Z " fill="#E82725" transform="translate(762,18)"/>
<path d="M0 0 C0.95798814 3.1323391 1.01689302 5.62396148 0.70417213 8.87508583 C0.6127282 9.86065078 0.52128427 10.84621574 0.42706931 11.86164629 C0.31978298 12.94198716 0.21249665 14.02232803 0.10195923 15.13540649 C-0.06108466 16.85963367 -0.06108466 16.85963367 -0.22742236 18.61869371 C-0.53061994 21.81014149 -0.83997681 25.00092342 -1.15193605 28.19152451 C-1.48683633 31.6320888 -1.81383958 35.07340461 -2.14183044 38.51463318 C-2.78561683 45.2557599 -3.43674934 51.99615785 -4.09038399 58.73633601 C-4.85082818 66.58054569 -5.60420915 74.42542881 -6.3573335 82.27034406 C-7.70095713 96.26346314 -9.05129316 110.25592647 -10.40527344 124.24804688 C-11.72011657 137.83575902 -13.02982367 151.42395365 -14.33398438 165.01269531 C-15.97964426 182.15958328 -17.62988581 199.30602419 -19.28389203 216.45210905 C-19.81168535 221.92486504 -20.33782531 227.39777857 -20.86341476 232.87074661 C-21.50356781 239.5357327 -22.14668437 246.20042521 -22.79356979 252.86476137 C-23.12378097 256.26729595 -23.45270765 259.66994178 -23.77820015 263.07293129 C-24.13110193 266.75517715 -24.48888594 270.4369156 -24.84799194 274.11856079 C-25.00222927 275.74576425 -25.00222927 275.74576425 -25.1595825 277.40584052 C-25.25624192 278.38618997 -25.35290135 279.36653943 -25.45248985 280.37659645 C-25.5346718 281.22728002 -25.61685374 282.07796359 -25.70152605 282.95442545 C-26 285 -26 285 -27 287 C-26.40058594 286.83927002 -25.80117188 286.67854004 -25.18359375 286.51293945 C-15.22729679 283.93092325 -5.16590382 281.86582718 4.91162109 279.81860352 C6.98605318 279.39469783 9.05929345 278.96492119 11.13134766 278.52954102 C14.14755513 277.89600946 17.16687488 277.28004329 20.1875 276.66796875 C21.57654541 276.37130562 21.57654541 276.37130562 22.99365234 276.06864929 C23.85555176 275.89799454 24.71745117 275.72733978 25.60546875 275.55151367 C26.35981201 275.39623703 27.11415527 275.24096039 27.89135742 275.08097839 C30.45307962 274.98260034 31.82751962 275.69743785 34 277 C33.23389902 286.5134469 32.44682827 296.02483173 31.63043213 305.53410339 C31.22367116 310.29163691 30.83818839 315.05004252 30.47584534 319.81115723 C30.3126066 321.91317059 30.13878854 324.01398507 29.96020508 326.11474609 C29.74017655 328.70605074 29.53760817 331.29890924 29.35424805 333.89306641 C29.25023682 335.05370605 29.14622559 336.2143457 29.0390625 337.41015625 C28.95865723 338.42215088 28.87825195 339.43414551 28.79541016 340.47680664 C28 343 28 343 26.1415863 344.50346375 C21.57088213 346.68077923 16.88924872 347.49831151 11.93920898 348.46777344 C10.82324341 348.69414993 9.70727783 348.92052643 8.55749512 349.15376282 C4.87222399 349.89859326 1.18432989 350.62937976 -2.50390625 351.359375 C-5.06562439 351.87255789 -7.6272226 352.38633974 -10.18870544 352.9006958 C-15.55471189 353.97661737 -20.92225889 355.04456926 -26.29077148 356.10791016 C-32.49543834 357.33698144 -38.69737454 358.57915079 -44.89804131 359.82823348 C-50.8685406 361.03059159 -56.84094783 362.2231685 -62.81425285 363.41150665 C-65.35413336 363.9177767 -67.89351121 364.42657509 -70.43237495 364.93791962 C-73.97617473 365.65029982 -77.5219982 366.35154613 -81.06860352 367.04980469 C-82.12170212 367.26375381 -83.17480072 367.47770294 -84.2598114 367.69813538 C-85.22571198 367.88595078 -86.19161255 368.07376617 -87.18678284 368.26727295 C-88.02465112 368.4339082 -88.8625194 368.60054344 -89.72577763 368.77222824 C-92.09858276 369.00987343 -93.74405716 368.72463642 -96 368 C-96.944934 364.16513855 -96.98937743 360.97075351 -96.61046791 357.04755592 C-96.4981236 355.84711289 -96.3857793 354.64666986 -96.27003062 353.40984976 C-96.13821082 352.08129505 -96.00625439 350.75275389 -95.87417603 349.42422485 C-95.73900787 348.01015155 -95.60448357 346.59601658 -95.47054803 345.181826 C-95.10056825 341.29524075 -94.7214315 337.40959487 -94.34080601 333.52403975 C-93.93192442 329.33359764 -93.53150624 325.14234598 -93.13005066 320.95118713 C-92.34218635 312.73994901 -91.54653931 304.52948263 -90.74835469 296.31924202 C-89.81929996 286.75944539 -88.89826061 277.19888173 -87.97764735 267.63826911 C-86.33471896 250.57891424 -84.68499965 233.52022303 -83.03125 216.46191406 C-81.42640642 199.90796141 -79.82553512 183.35363167 -78.22949219 166.79882812 C-78.13122401 165.77956008 -78.03295584 164.76029204 -77.93170984 163.71013708 C-77.53672771 159.6131638 -77.14175449 155.51618965 -76.74679766 151.41921393 C-75.13435014 134.69404098 -73.5188278 117.96916485 -71.90278959 101.24433851 C-71.53441098 97.43182916 -71.16614918 93.61930855 -70.79798555 89.80677843 C-69.83011912 79.78459306 -68.86124598 69.76250672 -67.88941146 59.74070527 C-67.48751555 55.59618254 -67.0860981 51.45161513 -66.68605232 47.30691338 C-66.31974233 43.51200935 -65.95193308 39.71725373 -65.58292358 35.92261128 C-65.38671284 33.90105532 -65.19205608 31.87934871 -64.99745619 29.85763705 C-64.67692565 26.57037062 -64.34465455 23.28481492 -64 20 C-63.88267427 18.84422585 -63.88267427 18.84422585 -63.76297832 17.66510272 C-63.24227141 13.24227141 -63.24227141 13.24227141 -61 11 C-58.71185303 10.34188843 -58.71185303 10.34188843 -55.81933594 9.76318359 C-54.73771179 9.54310638 -53.65608765 9.32302917 -52.54168701 9.09628296 C-50.78081757 8.75084946 -50.78081757 8.75084946 -48.984375 8.3984375 C-47.78065247 8.1571109 -46.57692993 7.9157843 -45.33673096 7.66714478 C-42.13108542 7.02685116 -38.92409486 6.39388304 -35.7164917 5.76348877 C-32.46937711 5.12200752 -29.22522256 4.46580063 -25.98046875 3.8125 C-23.5027742 3.31945726 -21.02491468 2.82724267 -18.546875 2.3359375 C-17.38105896 2.10160004 -16.21524292 1.86726257 -15.01409912 1.62582397 C-13.91986633 1.41205109 -12.82563354 1.1982782 -11.69824219 0.97802734 C-10.74052917 0.78864594 -9.78281616 0.59926453 -8.79608154 0.40414429 C-5.82796555 -0.02486578 -2.99483218 -0.06924128 0 0 Z " fill="#FEFEFE" transform="translate(469,322)"/>
<path d="M0 0 C0.33131171 9.11805382 -0.5453429 18.05314913 -1.54418945 27.10083008 C-1.81521605 29.58741892 -2.06500876 32.07561768 -2.31445312 34.56445312 C-2.48569115 36.14857726 -2.65817095 37.73256777 -2.83203125 39.31640625 C-2.94004814 40.43034508 -2.94004814 40.43034508 -3.05024719 41.56678772 C-3.29223633 43.64282227 -3.29223633 43.64282227 -4 47 C-7.49265687 49.32843791 -10.73345619 49.94105828 -14.7734375 50.7265625 C-15.53419586 50.87910492 -16.29495422 51.03164734 -17.07876587 51.18881226 C-18.6869582 51.50965135 -20.29581623 51.82716905 -21.90527344 52.14160156 C-24.36053854 52.62216947 -26.81312039 53.11493431 -29.265625 53.609375 C-30.830584 53.92000309 -32.39568391 54.22992228 -33.9609375 54.5390625 C-34.69130219 54.68590485 -35.42166687 54.83274719 -36.17416382 54.98403931 C-39.83192522 55.69206022 -43.27206591 56.17040422 -47 56 C-47.04898438 57.26070312 -47.09796875 58.52140625 -47.1484375 59.8203125 C-47.55623709 69.60939071 -48.12228453 79.36591125 -49 89.125 C-49.0829834 90.06617676 -49.1659668 91.00735352 -49.25146484 91.97705078 C-49.37448975 93.29165283 -49.37448975 93.29165283 -49.5 94.6328125 C-49.5721875 95.40512207 -49.644375 96.17743164 -49.71875 96.97314453 C-50 99 -50 99 -51 102 C-50.17798096 101.823479 -49.35596191 101.64695801 -48.5090332 101.46508789 C-45.44333767 100.80693186 -42.37757512 100.14908914 -39.31176758 99.49145508 C-37.98784762 99.20739996 -36.66395401 98.92322196 -35.34008789 98.63891602 C-33.43122268 98.22900175 -31.52225302 97.81957397 -29.61328125 97.41015625 C-28.46641846 97.16402588 -27.31955566 96.91789551 -26.13793945 96.66430664 C-24.58465942 96.33547485 -24.58465942 96.33547485 -23 96 C-22.11723389 95.80720459 -21.23446777 95.61440918 -20.32495117 95.41577148 C-17.2019498 94.85728452 -14.16439628 94.93795301 -11 95 C-10.65700862 104.12484117 -11.57729384 113.05048975 -12.59912109 122.10083008 C-12.87781721 124.58763796 -13.14048526 127.07582222 -13.40234375 129.56445312 C-13.57716655 131.14854357 -13.75291332 132.73253238 -13.9296875 134.31640625 C-14.04544632 135.43034508 -14.04544632 135.43034508 -14.1635437 136.56678772 C-14.77070211 141.77070211 -14.77070211 141.77070211 -17 144 C-19.49063488 144.66260673 -21.93362806 145.22450563 -24.45703125 145.7265625 C-25.19700851 145.87910492 -25.93698578 146.03164734 -26.6993866 146.18881226 C-28.26637637 146.51005934 -29.83413847 146.82755846 -31.40258789 147.14160156 C-33.79451915 147.62139327 -36.18343494 148.11440317 -38.57226562 148.609375 C-40.09619251 148.92006483 -41.62027641 149.22998567 -43.14453125 149.5390625 C-43.85615921 149.68590485 -44.56778717 149.83274719 -45.30097961 149.98403931 C-48.93615396 150.70522321 -52.3025503 151.06214535 -56 151 C-56.05115967 152.13808105 -56.10231934 153.27616211 -56.1550293 154.44873047 C-56.72011551 166.37815106 -57.66588096 178.23879766 -58.8125 190.125 C-58.98828452 191.97393483 -59.16381646 193.82289368 -59.33911133 195.671875 C-59.70299464 199.50057637 -60.06966677 203.3289967 -60.43847656 207.15722656 C-60.91106359 212.06476609 -61.37675229 216.97293248 -61.84046936 221.88131714 C-62.19989393 225.67843403 -62.56271696 229.47522013 -62.92660522 233.27191162 C-63.09985638 235.08354028 -63.2720854 236.89526698 -63.44326782 238.70709229 C-63.68139662 241.22173937 -63.9240569 243.73590817 -64.16796875 246.25 C-64.27242813 247.36723953 -64.27242813 247.36723953 -64.3789978 248.50704956 C-64.6740663 251.50612458 -65.04301086 254.12903258 -66 257 C-66.59312988 257.01981934 -67.18625977 257.03963867 -67.79736328 257.06005859 C-79.33508274 257.46422488 -90.60393329 258.08318458 -102 260 C-104.33291428 260.33625366 -106.66620475 260.66991625 -109 261 C-109.34279692 247.96229803 -108.26690364 235.21755549 -106.98046875 222.25390625 C-106.76306479 220.00533289 -106.54633787 217.75669397 -106.33023071 215.50799561 C-105.74618564 209.45060506 -105.15276372 203.39416679 -104.55755997 197.33786392 C-103.93544198 190.99099577 -103.32208213 184.64328125 -102.70776367 178.2956543 C-101.67697599 167.65690357 -100.64086122 157.01868545 -99.60058594 146.38085938 C-98.52990868 135.43199079 -97.4624987 124.48281164 -96.39941406 113.53320312 C-96.33370016 112.85637171 -96.26798626 112.17954029 -96.20028102 111.48219883 C-95.87057859 108.08616587 -95.54093968 104.69012674 -95.21133232 101.29408455 C-92.48406508 73.19509469 -89.74559519 45.09720451 -87 17 C-85.58312008 16.51733236 -84.16531313 16.03738556 -82.74713039 15.55855942 C-81.95769147 15.29099201 -81.16825255 15.0234246 -80.35489124 14.74774909 C-76.95711238 13.66885168 -73.52947002 12.94517134 -70.03344727 12.26660156 C-69.29407425 12.11825363 -68.55470123 11.9699057 -67.79292297 11.81706238 C-65.38521582 11.33567424 -62.97593643 10.86279632 -60.56640625 10.390625 C-58.88005854 10.05653286 -57.19377516 9.7221159 -55.5075531 9.38739014 C-51.99252214 8.69107081 -48.47667806 7.99905729 -44.96020508 7.31005859 C-40.44686857 6.42531736 -35.93589189 5.52912912 -31.42546177 4.62970352 C-27.95296713 3.93865234 -24.47925466 3.25389457 -21.0051403 2.57103729 C-19.34010901 2.2429135 -17.67547947 1.9127443 -16.01126289 1.580513 C-13.69565132 1.11915618 -11.37852909 0.66635383 -9.06079102 0.21582031 C-8.37146484 0.07667709 -7.68213867 -0.06246613 -6.97192383 -0.20582581 C-2.22848955 -1.11424477 -2.22848955 -1.11424477 0 0 Z " fill="#E82725" transform="translate(413,87)"/>
<path d="M0 0 C0.0614401 5.79277104 -0.10888329 11.44378744 -0.67662048 17.20603943 C-0.74941886 17.98002596 -0.82221724 18.7540125 -0.89722162 19.55145317 C-1.13960379 22.11730431 -1.38801824 24.68253322 -1.63647461 27.24780273 C-1.81254379 29.09804475 -1.98824928 30.94832141 -2.16362 32.79862976 C-2.63903379 37.80258964 -3.11980905 42.8060208 -3.6017921 47.80935168 C-4.10573683 53.04786996 -4.60546264 58.286791 -5.10585022 63.52565002 C-5.94601472 72.31451375 -6.78973421 81.10303088 -7.63549805 89.89135742 C-8.61410609 100.06060063 -9.58674245 110.23040198 -10.5562858 120.40051311 C-11.48915353 130.18418507 -12.42651783 139.96742136 -13.36584663 149.75047493 C-13.76568226 153.9157692 -14.1638723 158.08121599 -14.56074333 162.24679375 C-15.02742644 167.1432005 -15.49801183 172.03921656 -15.97166634 176.93495369 C-16.14518943 178.7352134 -16.31733677 180.53560631 -16.48803711 182.33613586 C-16.7204655 184.78541224 -16.95777993 187.23416594 -17.19639587 189.68284607 C-17.2635201 190.40237959 -17.33064433 191.12191311 -17.39980263 191.86325067 C-17.88584721 196.77169441 -17.88584721 196.77169441 -19 199 C-17.97640381 198.78794922 -16.95280762 198.57589844 -15.89819336 198.35742188 C-12.0771721 197.56775606 -8.2543374 196.78719304 -4.4309082 196.00927734 C-2.7806649 195.672216 -1.13091418 195.33273307 0.51831055 194.99072266 C2.8976506 194.49775157 5.27866336 194.01369959 7.66015625 193.53125 C8.38960953 193.37813354 9.11906281 193.22501709 9.87062073 193.06726074 C14.33679823 192.17335076 18.44482378 191.85364896 23 192 C23.22284513 200.44898168 22.63176954 208.77152235 21.828125 217.17211914 C21.62375642 219.32560389 21.43259331 221.4800065 21.2421875 223.63476562 C21.11277061 225.02351148 20.98258955 226.41218638 20.8515625 227.80078125 C20.73635254 229.03997314 20.62114258 230.27916504 20.50244141 231.5559082 C20.01265973 234.91322119 19.11127429 237.80505579 18 241 C7.52637757 243.09175038 -2.94825427 245.17836163 -13.42420483 247.25842285 C-18.28860029 248.22444468 -23.15263065 249.19223147 -28.01586914 250.1640625 C-32.70938084 251.10190902 -37.40379528 252.03510524 -42.09887123 252.96508789 C-43.88974232 253.32066471 -45.6802821 253.67791436 -47.47047997 254.03686523 C-49.97840482 254.53942949 -52.4874429 255.03602703 -54.99682617 255.53125 C-55.73625961 255.68086182 -56.47569305 255.83047363 -57.23753357 255.98461914 C-60.8927229 256.69942313 -64.28359368 257.06214756 -68 257 C-67.3370469 243.66504322 -66.17409724 230.40090678 -64.89868164 217.11206055 C-64.68479234 214.859937 -64.47115096 212.6077899 -64.25773621 210.35562134 C-63.68225362 204.29220631 -63.10274964 198.22918255 -62.52202916 192.16626716 C-62.15906211 188.37529112 -61.79689854 184.58423916 -61.43499565 180.79316139 C-60.43075478 170.27435817 -59.42560174 159.75564364 -58.41616154 149.23733807 C-58.35191233 148.56785839 -58.28766313 147.89837871 -58.22146698 147.20861178 C-58.09125772 145.85186876 -57.96104779 144.49512582 -57.8308372 143.13838293 C-57.76621415 142.46502369 -57.70159109 141.79166446 -57.63500977 141.09790039 C-57.57030636 140.42371238 -57.50560296 139.74952436 -57.43893885 139.05490641 C-56.38669529 128.08880249 -55.34196288 117.12199697 -54.30045111 106.1548691 C-53.22839529 94.86716792 -52.15022569 83.58006732 -51.06623167 72.29350501 C-50.45874728 65.96708416 -49.85383175 59.6404428 -49.25520515 53.31317711 C-48.69341301 47.37721954 -48.12404398 41.44203793 -47.54875374 35.50737381 C-47.3387674 33.32751798 -47.13153131 31.14739525 -46.92721176 28.96700096 C-46.64850945 25.99735072 -46.36001898 23.02881176 -46.06898499 20.06034851 C-45.98989193 19.19256875 -45.91079887 18.32478899 -45.82930905 17.43071288 C-45.74930895 16.63553498 -45.66930884 15.84035708 -45.5868845 15.02108288 C-45.52135523 14.33616935 -45.45582597 13.65125582 -45.38831097 12.94558734 C-44.93720113 10.68535353 -44.17843323 8.97667808 -43 7 C-41.26112366 6.20854187 -41.26112366 6.20854187 -39.14868164 5.7956543 C-38.3576857 5.63256271 -37.56668976 5.46947113 -36.75172424 5.30143738 C-35.89650681 5.14395523 -35.04128937 4.98647308 -34.16015625 4.82421875 C-33.28225937 4.64993851 -32.40436249 4.47565826 -31.49986267 4.2960968 C-29.64285318 3.93100981 -27.78417955 3.57430261 -25.92407227 3.2253418 C-23.07355392 2.68957762 -20.22925179 2.12737664 -17.38476562 1.56054688 C-15.58103399 1.20936823 -13.77700602 0.85970751 -11.97265625 0.51171875 C-10.69286644 0.2603138 -10.69286644 0.2603138 -9.38722229 0.00382996 C-8.19600014 -0.21716621 -8.19600014 -0.21716621 -6.98071289 -0.44262695 C-6.28281143 -0.57490189 -5.58490997 -0.70717682 -4.86585999 -0.84346008 C-3 -1 -3 -1 0 0 Z " fill="#E82725" transform="translate(539,62)"/>
<path d="M0 0 C-0.63316128 13.6859541 -1.78533955 27.28994261 -3.10131836 40.92553711 C-3.31524961 43.1695745 -3.52888965 45.41363967 -3.74226379 47.6577301 C-4.3172767 53.69420729 -4.89693905 59.73022874 -5.47797084 65.76612926 C-5.84107787 69.54017085 -6.20320554 73.31430515 -6.56500435 77.08847237 C-7.56898998 87.56102044 -8.57395009 98.03347342 -9.58383846 108.50545406 C-9.68021227 109.50479682 -9.68021227 109.50479682 -9.77853302 110.52432832 C-9.90874154 111.87445595 -10.03895147 113.22458343 -10.1691628 114.57471078 C-10.23378585 115.24478034 -10.29840891 115.91484991 -10.36499023 116.60522461 C-10.42969364 117.27611882 -10.49439704 117.94701303 -10.56106115 118.63823736 C-11.61383329 129.55640207 -12.65845455 140.47532997 -13.69954889 151.39461379 C-14.77124619 162.63378754 -15.84940065 173.87232705 -16.93376833 185.11028677 C-17.54144263 191.40925524 -18.14642063 197.70845479 -18.74479485 204.00831413 C-19.30616841 209.91642108 -19.87556009 215.82369972 -20.45124626 221.7304287 C-20.66139681 223.90101304 -20.86863138 226.07188189 -21.07278824 228.24303818 C-21.35106856 231.19770962 -21.63968252 234.15119029 -21.93101501 237.104599 C-22.01010807 237.97071853 -22.08920113 238.83683806 -22.17069095 239.72920364 C-22.554892 243.51879835 -22.85171126 245.77756689 -25 249 C-27.63867188 249.85961914 -27.63867188 249.85961914 -30.96875 250.53515625 C-32.78632813 250.91317383 -32.78632813 250.91317383 -34.640625 251.29882812 C-35.91421875 251.55083984 -37.1878125 251.80285156 -38.5 252.0625 C-39.74265625 252.31837891 -40.9853125 252.57425781 -42.265625 252.83789062 C-44.70949121 253.33929566 -47.15479524 253.8337494 -49.6015625 254.32080078 C-51.72373487 254.74493035 -53.84395141 255.179117 -55.9609375 255.62841797 C-56.82976562 255.81162598 -57.69859375 255.99483398 -58.59375 256.18359375 C-59.33302734 256.3427124 -60.07230469 256.50183105 -60.83398438 256.66577148 C-63.25010429 257.03859251 -65.55903644 257.05598786 -68 257 C-68.083876 250.69423009 -67.79185013 244.55709464 -67.17152405 238.2845459 C-67.08239146 237.34807268 -66.99325888 236.41159945 -66.9014253 235.44674826 C-66.60379173 232.33063071 -66.30006905 229.21513803 -65.99633789 226.09960938 C-65.7808483 223.85679072 -65.56573454 221.61393593 -65.35096741 219.37104797 C-64.76800461 213.29434734 -64.17974492 207.21816993 -63.59049153 201.14207649 C-62.97403464 194.77644316 -62.36234358 188.41035187 -61.75010681 182.04431152 C-60.72138785 171.35462608 -59.68958634 160.66524318 -58.65551758 149.97607422 C-57.59295066 138.99225007 -56.53254956 128.00822008 -55.47485352 117.02392578 C-55.40970502 116.34735693 -55.34455652 115.67078809 -55.27743382 114.97371715 C-55.01552133 112.25368197 -54.75361771 109.53364593 -54.49172736 106.81360862 C-53.29914397 94.42769966 -52.10480647 82.04195975 -50.91015625 69.65625 C-50.7892699 68.40280226 -50.66838355 67.14935452 -50.54383397 65.85792351 C-49.84809421 58.64494906 -49.15158645 51.4320495 -48.45393944 44.21925926 C-48.2428935 42.03642565 -48.03206242 39.85357124 -47.82146454 37.67069435 C-47.53341328 34.68555422 -47.24454525 31.70049422 -46.95545959 28.7154541 C-46.87277157 27.85678159 -46.79008355 26.99810908 -46.70488983 26.11341619 C-46.5497996 24.51554992 -46.39163991 22.91797761 -46.2299329 21.3207674 C-46.07096954 19.71631241 -45.92474291 18.11056293 -45.78880775 16.50399303 C-45.71504484 15.70416909 -45.64128193 14.90434515 -45.56528378 14.08028412 C-45.50429593 13.3674431 -45.44330809 12.65460208 -45.38047212 11.92015982 C-45 10 -45 10 -43 7 C-40.11650191 6.15981026 -37.3516833 5.497376 -34.4140625 4.921875 C-33.56073334 4.74617981 -32.70740417 4.57048462 -31.82821655 4.38946533 C-30.02210552 4.02059003 -28.21473151 3.65785359 -26.40625 3.30078125 C-23.6397325 2.75291753 -20.87852257 2.18272392 -18.1171875 1.609375 C-16.36225073 1.25386516 -14.60705003 0.89965517 -12.8515625 0.546875 C-12.02540436 0.37613464 -11.19924622 0.20539429 -10.34805298 0.02947998 C-9.57400116 -0.12107849 -8.79994934 -0.27163696 -8.00244141 -0.42675781 C-7.32452545 -0.56204895 -6.6466095 -0.69734009 -5.94815063 -0.83673096 C-3.74627922 -1.02126363 -2.11868038 -0.57551726 0 0 Z " fill="#E82826" transform="translate(474,75)"/>
</svg>
